<?xml version="1.0" encoding="iso-8859-1"?>
<!-- Generator: Adobe Illustrator 16.0.0, SVG Export Plug-In . SVG Version: 6.00 Build 0)  -->
<!DOCTYPE svg PUBLIC "-//W3C//DTD SVG 1.1//EN" "http://www.w3.org/Graphics/SVG/1.1/DTD/svg11.dtd">
<svg xmlns="http://www.w3.org/2000/svg" xmlns:xlink="http://www.w3.org/1999/xlink" version="1.1" id="Capa_1" x="0px" y="0px" width="512px" height="512px" viewBox="0 0 554.625 554.625" style="enable-background:new 0 0 554.625 554.625;" xml:space="preserve">
<g>
	<g>
		<path d="M449.438,248.625c-57.375,0-105.188,47.812-105.188,105.188S392.062,459,449.438,459s105.188-47.812,105.188-105.188    S506.812,248.625,449.438,248.625z M439.875,405.45l-45.9-45.9l13.388-13.388l30.601,30.601l59.287-59.288l13.388,13.388    L439.875,405.45z" fill="#414ef9"/>
		<path d="M288.787,263.925L239.062,306l-49.725-42.075l-114.75,97.538l-15.3-15.301l112.837-97.537L59.288,151.087l15.3-15.3    l164.475,141.525l164.475-141.525l15.301,15.3L306,248.625l40.162,34.425c22.95-32.512,59.288-53.55,103.275-53.55    c9.562,0,19.125,1.913,28.688,3.825v-99.45c0-21.038-17.213-38.25-38.25-38.25H38.25C17.212,95.625,0,112.837,0,133.875v229.5    c0,21.037,17.212,38.25,38.25,38.25h296.438c-5.737-15.3-9.562-30.6-9.562-47.812s3.825-34.425,11.475-51.638L288.787,263.925z" fill="#414ef9"/>
	</g>
</g>
<g>
</g>
<g>
</g>
<g>
</g>
<g>
</g>
<g>
</g>
<g>
</g>
<g>
</g>
<g>
</g>
<g>
</g>
<g>
</g>
<g>
</g>
<g>
</g>
<g>
</g>
<g>
</g>
<g>
</g>
</svg>
